<?xml version="1.0" encoding="UTF-8"?>
<svg id="Livello_1" data-name="Livello 1" xmlns="http://www.w3.org/2000/svg" viewBox="0 0 1708.53 823.52">
  <defs>
    <style>
      .cls-1 {
        fill: #fff;
        stroke-width: 0px;
      }
    </style>
  </defs>
  <g>
    <path class="cls-1" d="m123.67,124.44v-24.14l-7.13.18v-6.24h7.13v-15.06h7.84v15.06h14.43v6.24l-14.43-.18v25.22c0,6.95,1.07,10.51,6.86,10.51,3.3,0,5.7-.62,7.22-1.16l1.42,5.79c-2.76,1.07-5.97,1.78-9.44,1.78-13.72,0-13.9-9-13.9-18Z"/>
    <path class="cls-1" d="m149.6,117.76c0-15.06,7.84-24.68,21.2-24.68,15.41,0,19.96,13.28,19.96,26.73h-33.23c.62,10.07,5.97,16.13,13.99,16.13,6.59,0,10.96-4.28,12.21-11.58l6.77,1.78c-1.34,8.46-7.57,16.3-18.98,16.3-13.54,0-21.92-9.62-21.92-24.68Zm33.32-4.19c-.09-8.11-4.46-13.99-12.03-13.99-7.04,0-12.12,4.54-13.19,13.99h25.22Z"/>
    <path class="cls-1" d="m196.12,117.76c0-15.14,8.38-24.68,21.83-24.68,11.4,0,17.73,7.75,19.07,16.22l-6.77,1.78c-1.25-7.22-5.61-11.49-12.21-11.49-8.64,0-14.08,6.86-14.08,18.18s5.44,18.18,14.08,18.18c6.59,0,10.96-4.19,12.21-11.5l6.77,1.78c-1.34,8.46-7.57,16.22-18.98,16.22-13.45,0-21.92-9.53-21.92-24.68Z"/>
    <path class="cls-1" d="m244.32,118.48l-.18-39.2h7.84l-.18,22.1h.18c2.32-4.45,7.57-8.29,15.15-8.29,10.34,0,16.04,6.06,16.04,19.96v5.44l.18,22.63h-7.84l.18-22.63v-5.34c0-9.36-4.36-13.46-10.87-13.46-7.13,0-13.01,6.06-13.01,15.33v3.47l.18,22.63h-7.84l.18-22.63Z"/>
    <path class="cls-1" d="m294.94,118.48l-.18-24.23h7.84l-.18,7.13h.18c2.32-4.45,7.57-8.29,15.15-8.29,10.34,0,16.04,6.06,16.04,19.96v5.44l.18,22.63h-7.84l.18-22.63v-5.34c0-9.36-4.36-13.46-10.87-13.46-7.13,0-13.01,6.06-13.01,15.33v3.47l.18,22.63h-7.84l.18-22.63Z"/>
    <path class="cls-1" d="m349.29,79.01c3.21,0,4.81,1.6,4.81,4.81s-1.6,4.9-4.81,4.9-4.81-1.6-4.81-4.9,1.6-4.81,4.81-4.81Zm-3.74,38.67l-.18-23.43h7.84l-.18,23.43.18,23.43h-7.84l.18-23.43Z"/>
    <path class="cls-1" d="m361.68,117.76c0-15.14,8.38-24.68,21.83-24.68,11.4,0,17.73,7.75,19.07,16.22l-6.77,1.78c-1.25-7.22-5.61-11.49-12.21-11.49-8.64,0-14.08,6.86-14.08,18.18s5.44,18.18,14.08,18.18c6.59,0,10.96-4.19,12.21-11.5l6.77,1.78c-1.34,8.46-7.57,16.22-18.98,16.22-13.45,0-21.92-9.53-21.92-24.68Z"/>
    <path class="cls-1" d="m407.04,129.08c0-10.42,7.31-15.06,26.64-15.06h4.1v-1.25c0-8.2-2.76-13.45-11.14-13.45-9.27,0-12.21,7.13-12.03,12.38l-6.77-1.69c0-9.53,7.31-16.93,18.8-16.93,12.47,0,18.44,6.24,18.44,18v20.76c0,3.03.8,4.46,3.92,4.46.89,0,1.87-.18,2.76-.54l1.16,5.17c-1.78.62-3.74,1.07-5.88,1.07-4.81,0-7.75-2.94-7.75-8.29,0-1.34.09-2.05.18-2.67h-.18c-3.03,6.86-8.64,11.4-17.11,11.4-9.98,0-15.15-5.61-15.15-13.36Zm16.22,6.95c7.13,0,14.52-6.06,14.52-15.5v-.89h-2.14c-14.34,0-20.85,1.96-20.85,9.36,0,4.19,3.12,7.04,8.46,7.04Z"/>
    <path class="cls-1" d="m458.46,109.74l-.18-30.47h7.84l-.18,30.47.18,31.36h-7.84l.18-31.36Z"/>
    <path class="cls-1" d="m500.6,121.15l-.18-26.91h8.11l-.18,6.95h.18c1.78-3.48,6.59-8.11,14.79-8.11,12.21,0,19.07,8.64,19.07,24.5s-6.86,24.86-19.07,24.86c-8.2,0-12.92-4.9-14.88-8.46h-.18l.27,21.38h-8.11l.18-34.21Zm20.85,14.88c8.38,0,13.1-6.59,13.1-18.44s-4.72-18.09-13.1-18.09c-6.95,0-13.19,5.52-13.19,18.26,0,14.7,7.57,18.27,13.19,18.27Z"/>
    <path class="cls-1" d="m548.19,129.08c0-10.42,7.31-15.06,26.64-15.06h4.1v-1.25c0-8.2-2.76-13.45-11.14-13.45-9.27,0-12.21,7.13-12.03,12.38l-6.77-1.69c0-9.53,7.31-16.93,18.8-16.93,12.47,0,18.44,6.24,18.44,18v20.76c0,3.03.8,4.46,3.92,4.46.89,0,1.87-.18,2.76-.54l1.16,5.17c-1.78.62-3.74,1.07-5.88,1.07-4.81,0-7.75-2.94-7.75-8.29,0-1.34.09-2.05.18-2.67h-.18c-3.03,6.86-8.64,11.4-17.11,11.4-9.98,0-15.15-5.61-15.15-13.36Zm16.22,6.95c7.13,0,14.52-6.06,14.52-15.5v-.89h-2.14c-14.34,0-20.85,1.96-20.85,9.36,0,4.19,3.12,7.04,8.46,7.04Z"/>
    <path class="cls-1" d="m599.61,118.56l-.18-24.32h7.84l-.27,7.39h.18c1.6-4.36,6.42-8.55,13.72-8.55.98,0,2.32.09,3.47.36l-.09,7.4c-1.51-.45-2.76-.62-3.83-.62-8.38,0-13.36,5.61-13.36,16.93v1.34l.18,22.63h-7.84l.18-22.54Z"/>
    <path class="cls-1" d="m633.74,124.44v-24.14l-7.13.18v-6.24h7.13v-15.06h7.84v15.06h14.43v6.24l-14.43-.18v25.22c0,6.95,1.07,10.51,6.86,10.51,3.3,0,5.7-.62,7.22-1.16l1.42,5.79c-2.76,1.07-5.97,1.78-9.44,1.78-13.72,0-13.9-9-13.9-18Z"/>
    <path class="cls-1" d="m663.5,118.48l-.18-24.23h7.84l-.18,7.13h.18c2.32-4.45,7.57-8.29,15.15-8.29,10.34,0,16.04,6.06,16.04,19.96v5.44l.18,22.63h-7.84l.18-22.63v-5.34c0-9.36-4.36-13.46-10.87-13.46-7.13,0-13.01,6.06-13.01,15.33v3.47l.18,22.63h-7.84l.18-22.63Z"/>
    <path class="cls-1" d="m710.82,117.76c0-15.06,7.84-24.68,21.2-24.68,15.41,0,19.96,13.28,19.96,26.73h-33.23c.62,10.07,5.97,16.13,13.99,16.13,6.59,0,10.96-4.28,12.21-11.58l6.77,1.78c-1.34,8.46-7.57,16.3-18.98,16.3-13.54,0-21.92-9.62-21.92-24.68Zm33.32-4.19c-.09-8.11-4.46-13.99-12.03-13.99-7.04,0-12.12,4.54-13.19,13.99h25.22Z"/>
    <path class="cls-1" d="m760.63,118.56l-.18-24.32h7.84l-.27,7.39h.18c1.6-4.36,6.42-8.55,13.72-8.55.98,0,2.32.09,3.47.36l-.09,7.4c-1.51-.45-2.76-.62-3.83-.62-8.38,0-13.36,5.61-13.36,16.93v1.34l.18,22.63h-7.84l.18-22.54Z"/>
    <path class="cls-1" d="m787.63,127.56l6.86-1.69c-.18,5.79,3.92,10.07,12.38,10.07,6.06,0,9.71-2.23,9.71-7.22,0-4.28-3.3-6.77-10.51-7.93-12.74-1.96-16.22-7.4-16.22-14.08,0-7.75,5.08-13.63,15.32-13.63,11.23,0,16.84,4.63,17.73,13.9l-6.77,1.69c-.36-6.15-3.83-9.09-10.6-9.09-5.26,0-8.11,2.5-8.11,6.5s2.49,6.42,10.42,7.84c11.76,2.05,16.3,7.22,16.3,14.52,0,7.84-6.15,13.99-17.55,13.99s-18.09-4.72-18.98-14.88Z"/>
  </g>
  <g>
    <path class="cls-1" d="m664.05,354.28c-1.68,0-3.37-.01-5.05-.01-106.79,0-213.59.06-320.38-.09-10.19-.01-19.53,2.15-28.32,7.08-8.98,5.04-17.9,10.18-26.87,15.22-9.24,5.19-18.72,9.89-28.86,13.1-7.71,2.44-15.58,4.02-23.72,3.38-7.54-.59-14.77-2.5-21.83-5.16-12.26-4.62-23.55-11.12-34.87-17.61-6.88-3.95-13.8-7.86-20.89-11.4-6.9-3.45-14.29-5.12-22.09-4.28-.08,0-.17-.07-.4-.18,1.43-2.77,2.82-5.56,4.32-8.28.18-.32.98-.46,1.48-.43,8.28.53,15.9,3.25,23.08,7.23,9.97,5.53,19.84,11.25,29.82,16.75,9.42,5.19,19.21,9.5,29.62,12.37,11.66,3.22,23.12,2.44,34.54-1.17,11.96-3.78,22.94-9.63,33.8-15.77,8.25-4.67,16.46-9.4,24.84-13.82,8.06-4.25,16.74-6.21,25.91-5.71,1.39.08,2.79.04,4.19.04,106.7,0,213.39,0,320.09,0,.53,0,1.06.05,1.58.07v8.67Z"/>
    <path class="cls-1" d="m323.72,395.3c-2.53-6.81-5.06-13.62-7.58-20.43-1.2-3.25-2.38-6.5-3.66-9.99,1.89-.83,3.74-1.71,5.64-2.47,6.48-2.61,13.17-3.88,20.19-3.01,1.65.21,2.7.78,3.51,2.4,5.38,10.76,10.9,21.45,16.37,32.17.21.42.33.89.49,1.33h-34.96Z"/>
    <path class="cls-1" d="m109.92,395.3c1.67-3.4,3.31-6.82,5.03-10.19,4-7.84,8.08-15.63,12.03-23.49.72-1.43,1.65-2.03,3.18-2.21,8.24-.96,15.95.88,23.39,4.26,2.61,1.18,2.63,1.19,1.65,3.87-3.21,8.75-6.44,17.5-9.65,26.26-.18.49-.26,1.01-.38,1.52h-35.25Z"/>
    <path class="cls-1" d="m137.63,340.86c12.16-23.77,24.2-47.3,36.43-71.19,18.73,36.55,37.31,72.82,56.1,109.49-2.08-.29-3.8-.49-5.5-.79-9.32-1.64-18.16-4.8-26.48-9.18-11.28-5.94-22.36-12.24-33.51-18.42-6.07-3.37-12.15-6.67-18.94-8.39-1.95-.49-3.96-.8-5.94-1.18-.64-.12-1.29-.2-2.15-.33Z"/>
    <path class="cls-1" d="m238.71,378.82c18.56-36.25,37.12-72.51,55.87-109.13,12.2,23.83,24.26,47.38,36.43,71.16-1.43.22-2.65.38-3.85.59-7.8,1.33-14.83,4.63-21.66,8.47-10.15,5.7-20.22,11.54-30.47,17.06-8.4,4.53-17.18,8.23-26.51,10.44-3.17.75-6.39,1.24-9.59,1.84-.07-.15-.15-.29-.22-.44Z"/>
    <path class="cls-1" d="m367.89,340.68c-5.7.2-11.26-.52-16.56-2.64-8.2-3.27-14.58-8.63-16.75-17.42-3.58-14.48,2.33-27.19,15.75-32.77,12.72-5.29,25.59-4.74,37.6,2.36,8.29,4.91,12.29,12.47,12.39,22.35.15,14.04-9.86,24.55-22.83,27.29-3.13.66-6.37.8-9.56,1.18-.01-.12-.02-.24-.03-.36Zm-1.42-41.05c-1.05.15-2.82.31-4.55.68-5.21,1.1-9.33,5.22-9.94,9.84-.84,6.34,1.45,11.07,6.85,13.78,4.84,2.43,9.9,2.61,14.99.9,8.34-2.79,11.23-13.18,5.56-19.92-3.17-3.77-7.4-5.14-12.9-5.28Z"/>
    <path class="cls-1" d="m525.1,340.7c-5.18.18-10.7-.54-15.96-2.62-8.26-3.26-14.73-8.65-16.85-17.5-3.61-15.1,2.81-27.81,16.74-33.14,12.41-4.75,24.87-4.06,36.57,2.7,5.98,3.45,10.21,8.63,11.67,15.48,3.25,15.28-3.72,27.51-17.41,32.89-4.5,1.77-8.92,2.42-14.75,2.2Zm14.82-27.62c.06-4.68-1.98-8.27-5.83-10.8-4.57-3-9.6-3.14-14.73-1.9-5.55,1.34-9.39,5.64-9.81,10.79-.49,6.03,2.28,10.75,7.81,13.16,4.17,1.82,8.47,2,12.86.91,6.05-1.51,9.62-5.98,9.7-12.17Z"/>
    <path class="cls-1" d="m663.67,339.02c-2.8,0-5.35,0-7.89,0-3.8,0-7.6-.03-11.41.02-.93.01-1.4-.27-1.62-1.19-.4-1.63-.93-3.24-1.34-4.87-.22-.87-.64-1.26-1.6-1.26-5.34.04-10.68.04-16.03,0-.97,0-1.38.43-1.61,1.27-.46,1.67-.89,3.35-1.48,4.98-.16.44-.82.99-1.25.99-6.3.06-12.61.04-18.91.04-.22,0-.45-.09-.84-.17.84-1.94,1.62-3.78,2.42-5.61,6.61-15.06,13.24-30.12,19.82-45.19.49-1.11,1.05-1.6,2.34-1.58,5.15.08,10.3.05,15.45.01.95,0,1.45.28,1.85,1.19,7.2,16.69,14.44,33.36,21.67,50.04.15.34.24.71.44,1.32Zm-31.66-37.18c-.2,0-.41,0-.61,0-.16,1.19-.19,2.41-.51,3.56-1.26,4.57-2.59,9.13-3.92,13.68-.45,1.55-.46,1.58,1.21,1.59,2.35,0,4.71,0,7.06,0,1.89,0,1.87-.06,1.33-1.84-1.42-4.72-2.79-9.46-4.13-14.21-.25-.89-.29-1.84-.43-2.77Z"/>
    <path class="cls-1" d="m415.55,339.08c0-.88,0-1.5,0-2.12,0-11.75,0-23.5,0-35.25q0-1.97-2.02-1.98c-2.79,0-5.59-.03-8.38.02-.92.02-1.3-.27-1.29-1.22.03-3.61.05-7.22,0-10.83-.02-1.31.77-1.18,1.61-1.18,11.56,0,23.11,0,34.67,0q3.95,0,3.95,4.02c0,2.55-.05,5.11.02,7.66.03,1.17-.3,1.62-1.53,1.57-2.55-.09-5.1-.03-7.65-.03q-2.39,0-2.39,2.31c0,11.75-.02,23.5.03,35.24,0,1.44-.33,1.88-1.84,1.84-4.52-.12-9.05-.05-13.58-.06-.47,0-.94,0-1.61,0Z"/>
    <path class="cls-1" d="m467.84,286.52c6.16,0,12.32.03,18.48-.02,1.17,0,1.6.3,1.58,1.53-.07,3.42-.06,6.83,0,10.25.02,1.13-.34,1.52-1.49,1.48-2.6-.07-5.2-.02-7.8-.02q-2.32,0-2.33,2.39c0,11.74-.02,23.49.03,35.23,0,1.39-.35,1.78-1.75,1.75-4.57-.09-9.14-.07-13.72.02-1.34.03-1.59-.43-1.58-1.65.04-11.65.03-23.29.02-34.94,0-3.08.47-2.8-2.88-2.81-2.36,0-4.72-.07-7.07.02-1.24.05-1.69-.29-1.66-1.6.09-3.37.07-6.74,0-10.11-.03-1.19.33-1.57,1.54-1.56,6.21.05,12.42.02,18.63.02Z"/>
    <path class="cls-1" d="m561.59,312.66c0-8.18.03-16.36-.03-24.54,0-1.28.36-1.65,1.63-1.63,4.67.07,9.34.06,14,0,1.2-.02,1.56.35,1.55,1.55-.04,11.69-.03,23.39-.02,35.08q0,2,1.99,2c4.52,0,9.05.03,13.57-.02,1.13-.01,1.52.32,1.5,1.47-.06,3.66-.06,7.32,0,10.97.02,1.12-.32,1.5-1.47,1.49-10.39-.04-20.79-.04-31.18,0-1.19,0-1.56-.35-1.56-1.55.05-8.28.02-16.55.02-24.83Z"/>
    <path class="cls-1" d="m424.09,360.92c3.35.22,6.73.25,10.05.72,4.3.61,6.26,3.09,6.29,7.42.02,4.09.02,8.18,0,12.27-.02,3.61-1.43,5.67-4.88,6.79-1.63.53-3.37.95-5.07.97-5.04.07-10.09,0-15.13-.19-1.35-.05-2.74-.54-4.02-1.05-2.97-1.2-4.51-3.36-4.42-6.71.11-4.04.01-8.08.03-12.12.02-3.69,1.57-5.86,5.12-6.9,1.6-.47,3.28-.77,4.95-.88,2.35-.15,4.71-.04,7.07-.04,0-.09,0-.19.01-.28Zm-.56,3.83c-2.82.25-5.81.34-8.73.81-2.32.38-3.09,1.63-3.09,3.98,0,3.7,0,7.41,0,11.11,0,2.53.6,3.62,3.13,4.06,5.86,1,11.76.87,17.65.07.19-.03.37-.1.55-.16,1.87-.65,2.61-1.66,2.61-3.65.01-3.75,0-7.5,0-11.26,0-2.6-.75-3.78-3.36-4.21-2.83-.46-5.72-.51-8.76-.75Z"/>
    <path class="cls-1" d="m574.63,360.91c3.35.23,6.73.26,10.05.74,4.26.62,6.21,3.15,6.22,7.48,0,3.94,0,7.89,0,11.83,0,4.11-1.67,6.34-5.65,7.42-1.15.31-2.35.59-3.54.63-6.04.23-12.11.79-18.1-.57-1.24-.28-2.45-.89-3.53-1.56-1.79-1.12-2.68-2.83-2.68-4.97,0-4.28,0-8.56,0-12.84,0-3.73,1.51-5.89,5.06-6.94,1.64-.49,3.38-.79,5.09-.9,2.35-.15,4.71-.04,7.07-.04,0-.09,0-.19.01-.28Zm-.73,3.83c-2.82.25-5.81.36-8.73.84-2.21.36-3.01,1.66-3.02,3.9-.01,3.7,0,7.41,0,11.11,0,2.6.62,3.7,3.24,4.14,5.81.96,11.67.84,17.51.05.19-.03.37-.1.55-.16,1.93-.65,2.68-1.68,2.69-3.76,0-3.7,0-7.41,0-11.11,0-2.59-.78-3.83-3.34-4.25-2.88-.47-5.82-.52-8.91-.77Z"/>
    <path class="cls-1" d="m624.3,382.57c.05-.68.12-1.17.12-1.67,0-5.83-.02-11.65.03-17.48,0-.7.28-1.9.65-1.99,1.07-.26,2.26-.18,3.37,0,.29.05.62.96.62,1.47.04,7.9.07,15.79,0,23.69-.02,2.66-2.18,3.71-4.42,2.2-1.31-.88-2.47-1.99-3.67-3.03-6.73-5.83-13.46-11.67-20.19-17.5-.26-.23-.59-.39-1.22-.79,0,.85,0,1.35,0,1.85,0,5.87,0,11.75,0,17.62,0,1.96-.43,2.32-2.73,2.3-1.57,0-2.04-.5-2.04-2.26,0-7.61-.02-15.21,0-22.82,0-3.1,2.05-4.27,4.68-2.6,1.37.87,2.58,2,3.82,3.07,6.69,5.8,13.37,11.63,20.05,17.43.2.17.47.25.93.49Z"/>
    <path class="cls-1" d="m384.51,389.25c-3.27,0-6.55,0-9.82,0-1.58,0-2.07-.48-2.06-1.92,0-1.58.44-2.03,2.1-2.03,5.68-.01,11.36.04,17.04-.03,1.76-.02,3.54-.29,5.27-.64,1.42-.29,2.13-1.29,2.15-2.84.01-1.71.03-3.41-1.99-3.99-1.42-.41-2.91-.7-4.38-.79-4.13-.25-8.27-.33-12.4-.55-1.19-.06-2.4-.26-3.53-.63-2.95-.96-4.33-2.97-4.35-6.07-.04-5.44,1.66-7.55,7.06-8.27,2.52-.34,5.09-.29,7.63-.34,1.35-.03,1.64.96,1.65,2.07.01,1.11-.55,1.65-1.67,1.73-2.3.15-4.63.16-6.88.59-3.19.61-3.42,2.27-2.88,4.89.16.79,1.32,1.65,2.2,1.95,1.24.43,2.64.43,3.98.49,4.37.19,8.75.19,13.11.53,1.47.11,2.95.85,4.29,1.56,1.88.99,2.86,2.66,2.88,4.83,0,1.01.05,2.02-.02,3.03-.24,3.86-2.2,5.71-6.83,6.06-4.17.31-8.36.36-12.54.52,0-.05,0-.1,0-.15Z"/>
    <path class="cls-1" d="m644.38,389.25c-3.32,0-6.64,0-9.97,0-1.58,0-2.08-.48-2.09-1.89-.01-1.55.47-2.05,2.08-2.06,5.73-.01,11.46.04,17.19-.04,1.71-.02,3.45-.29,5.13-.63,1.5-.3,2.2-1.34,2.17-2.95-.04-2.58-.32-3.41-2.05-3.93-1.37-.41-2.82-.67-4.25-.75-4.18-.24-8.37-.34-12.55-.55-1.09-.06-2.21-.24-3.25-.56-3.14-.98-4.53-2.94-4.54-6.21,0-.77-.03-1.54.05-2.31.27-2.89,2.14-5.09,5.38-5.6,3.07-.48,6.22-.51,9.34-.62,1.34-.05,1.62,1.01,1.61,2.11,0,1.11-.63,1.61-1.74,1.68-2.3.15-4.62.19-6.88.59-2.68.48-3.71,2.16-2.92,4.76.25.84,1.27,1.66,2.14,2.05.96.43,2.15.47,3.25.5,3.99.1,8-.05,11.98.25,2.05.16,4.13.89,6.04,1.72,2.09.91,3.17,2.75,3.15,5.1-.01,1.25-.05,2.5-.11,3.75-.11,2.17-1.25,3.77-3.28,4.28-2.54.64-5.18,1.03-7.79,1.23-2.68.2-5.39.05-8.09.05v.02Z"/>
    <path class="cls-1" d="m478.66,372.55c0-3.08-.01-6.16,0-9.24,0-1.79.4-2.19,2.07-2.2,2.29-.01,2.7.29,2.7,2.15.01,5.63,0,11.26,0,16.9,0,2.87,1.22,4.62,4.1,4.75,5.47.24,10.96.26,16.43.03,2.95-.12,4.12-1.85,4.13-4.86,0-5.49,0-10.97,0-16.46,0-2.21,1.94-3.41,3.9-2.3.49.28.79,1.28.8,1.96.07,4.81.04,9.63.04,14.44,0,1.01,0,2.02,0,3.03-.03,3.83-1.53,6.01-5.21,7.21-1.63.53-3.35.94-5.06,1.08-5.96.48-11.93.62-17.83-.56-4.52-.9-6.07-2.96-6.08-7.55,0-2.79,0-5.58,0-8.38Z"/>
    <path class="cls-1" d="m530.74,361.11c4.47,0,8.95.02,13.42-.01,1.21,0,1.92.42,2.05,1.68.15,1.5-.39,2.17-1.91,2.18-3.13.02-6.25.06-9.38-.02-1.39-.04-1.83.43-1.81,1.81.06,6.64.03,13.27.03,19.91,0,2.4-1.64,3.48-3.79,2.32-.55-.3-.92-1.42-.93-2.17-.07-6.11-.04-12.21-.04-18.32,0-.53,0-1.06,0-1.59q0-1.93-1.9-1.94c-2.98,0-5.96,0-8.94,0-1.61,0-2.11-.46-2.14-1.85-.03-1.56.4-2,2.08-2.01,4.42-.01,8.85,0,13.27,0Z"/>
    <path class="cls-1" d="m443.53,372.71c0-3.17-.01-6.35,0-9.52,0-1.73.35-2.06,2-2.07,2.28-.02,2.72.31,2.72,2.15.01,5.92,0,11.83,0,17.75,0,2.18.59,3.07,2.68,3.67,1.1.31,2.26.51,3.4.52,6.11.07,12.22.06,18.33.09,1.63,0,2.18.58,2.19,2.14.01,1.19-.53,1.82-1.72,1.81-7.26-.1-14.52-.18-21.78-.37-1.22-.03-2.46-.44-3.63-.86-2.81-1.03-4.18-3.05-4.2-6.06-.02-3.08,0-6.16,0-9.24Z"/>
    <path class="cls-1" d="m553.45,375.07c0,3.99.01,7.98,0,11.97,0,1.79-.43,2.21-2.06,2.2-2.24,0-2.62-.31-2.62-2.24-.01-7.88-.01-15.77,0-23.65,0-2,.28-2.23,2.57-2.23,1.76,0,2.11.35,2.11,2.27.01,3.89,0,7.79,0,11.68Z"/>
  </g>
  <g>
    <path class="cls-1" d="m937.07,365.77c0-2.45.73-4.28,2.4-6.57l39.05-54.16h-.05c-1.99,1.82-3.54,2.55-5.69,2.6h-33.99v-11.57h54.95v4.8c0,2.4-.68,4.28-2.3,6.52l-39.1,54.22h.16c1.93-1.77,3.39-2.55,5.52-2.55h35.4v11.57h-56.36v-4.85Z"/>
    <path class="cls-1" d="m1008.28,370.61v-74.6h47.02v11.57h-35.24v19.24h28.62v11.31h-28.62v20.91h35.24v11.57h-47.02Z"/>
    <path class="cls-1" d="m1062.33,296.02h57.03v11.52h-22.57v63.08h-11.78v-63.08h-22.68v-11.52Z"/>
    <path class="cls-1" d="m1185,370.61h-7.98c-3.08,0-5.63-1.67-6.83-4.43l-5.1-11.73h-35.77l-5.1,11.73c-1.2,2.76-3.76,4.43-6.78,4.43h-8.03l32.58-74.6h10.43l32.59,74.6Zm-24.61-27l-10.95-25.13c-1.72-3.91-1.93-5.58-1.98-7.72h-.53c-.05,2.14-.26,3.8-1.93,7.72l-10.95,25.13h26.32Z"/>
    <path class="cls-1" d="m1194.47,296.02h47.08v11.57h-35.4v21.12h29.56v11.36h-29.56v30.55h-11.68v-74.6Z"/>
    <path class="cls-1" d="m1286.63,295.07c21.69,0,38.53,16.68,38.53,38.27s-16.83,38.21-38.53,38.21-38.42-16.68-38.42-38.21,16.79-38.27,38.42-38.27Zm.06,64.91c15.01,0,26.69-11.67,26.69-26.64s-11.68-26.69-26.69-26.69-26.69,11.67-26.69,26.69,11.67,26.64,26.69,26.64Z"/>
    <path class="cls-1" d="m1401.89,296.02v74.6h-8.97c-1.41,0-2.92-.99-4.06-2.66l-38.42-56.51h-.26c1.15,2.82,1.51,5.37,1.51,7.82l-.05,51.35h-11.73v-74.6h9.18c2.97,0,4.94.83,6.88,3.65l35.86,52.65h.21c-1.51-3.34-1.87-5.94-1.87-8.24v-48.06h11.73Z"/>
    <path class="cls-1" d="m1413.55,296.02h57.03v11.52h-22.57v63.08h-11.78v-63.08h-22.68v-11.52Z"/>
    <path class="cls-1" d="m1475.68,360.29l2.56-4.38c1.62-2.55,5.42-3.23,8.34-1.25,3.81,2.71,9.43,5.21,13.24,5.37,8.13.1,13.92-3.7,13.92-11.16,0-5-4.22-8.6-13.55-12.25-14.44-5.21-21.01-11.98-21.01-21.32,0-11.94,9.28-20.23,22.63-20.23,6.72,0,14.96,2.71,19.81,7.98l-2.09,3.65c-1.88,3.23-5.16,4.33-8.08,2.87-3.34-2.19-7.25-2.98-9.64-2.98-6.31,0-10.85,3.29-10.85,8.66,0,4.23,3.91,7.19,12.47,10.22,14.96,4.74,22.1,12.46,22.1,23.36,0,13.45-10.53,22.73-25.7,22.73-9.64,0-18.35-5.06-24.14-11.26Z"/>
    <path class="cls-1" d="m1530.84,296.22h25.55v4.74h-10.17v27.53h-5.21v-27.53h-10.17v-4.74Zm67.77,0v32.27h-5.16v-23.62c0-.31.1-.88.26-1.51l-10.63,19.76c-.53.99-.99,1.35-2.35,1.35-1.46,0-1.87-.57-2.29-1.35l-10.63-19.76c.15.52.31,1.2.31,1.51v23.62h-5.22v-32.27h3.86c1.41,0,2.34.21,3.29,2.03l10.32,18.56c.21.42.31.99.36,1.88.1-1.1.32-1.56.47-1.88l10.11-18.62c.73-1.35,1.47-1.98,3.5-1.98h3.8Z"/>
  </g>
</svg>