<?xml version="1.0" encoding="UTF-8"?>
<svg id="Livello_1" data-name="Livello 1" xmlns="http://www.w3.org/2000/svg" viewBox="0 0 1108.86 823.52">
  <defs>
    <style>
      .cls-1 {
        fill-rule: evenodd;
      }

      .cls-1, .cls-2 {
        fill: #fff;
        stroke-width: 0px;
      }
    </style>
  </defs>
  <path class="cls-1" d="m785.12,495.89c-50.13,0-79.7-37.28-79.7-75.84s29.57-75.84,79.7-75.84,79.7,37.92,79.7,75.84-29.57,75.84-79.7,75.84Zm0-115.05c-21.65,0-39.2,17.56-39.2,39.21,0,21.65,17.56,39.2,39.21,39.2,21.65,0,39.2-17.56,39.2-39.21,0-.21,0-.43,0-.64.36-20.94-16.33-38.21-37.27-38.56h-.01s-1.93,0-1.93,0Zm-388.86,79.7c14.1-.15,27.26-7.09,35.35-18.64v-1.93l33.42,18.64-1.93,2.57c-16.05,20.56-40.17,33.2-66.2,34.71-50.13,0-79.7-37.92-79.7-76.49s29.57-75.84,79.7-75.84c42.93,1.38,76.61,37.3,75.23,80.23,0,.25-.02.5-.03.75v2.57c-.31,4.13-3.59,7.41-7.71,7.71h-104.12c4.89,15.66,19.59,26.17,35.99,25.71Zm-3.21-81.63c-14.33.15-27.1,9.08-32.14,22.5h64.92c-5.12-13.63-18.22-22.62-32.78-22.5Zm488.48,116.98c-3.91-.26-7.12-3.2-7.71-7.07v-145.9h29.57c3.91.26,7.12,3.2,7.71,7.07,4.57-5.03,11.22-7.64,18-7.07,8.36-.12,16.66,1.41,24.42,4.5l4.5,1.93-12.21,28.92c-1.68,2.67-4.56,4.35-7.71,4.5h-2.57c-2.88-1.05-5.94-1.49-9-1.29-8.16.35-14.49,7.24-14.14,15.4,0,0,0,.02,0,.03h0v98.34h-30.85v.64Zm-576.54-28.28c-25.07,16.71-49.49,28.28-84.2,28.28-60.34,1.07-110.12-46.98-111.19-107.31-.02-1.08-.02-2.16,0-3.24-.72-60.34,47.61-109.84,107.96-110.56,1.08-.01,2.16,0,3.24,0,31.72-.9,62.33,11.72,84.2,34.71l1.29,1.29-19.93,20.57c-3.09,3.89-8.75,4.55-12.64,1.46-.07-.06-.14-.12-.21-.17-14.16-12.57-32.48-19.44-51.42-19.28-39.05-.35-70.99,31.01-71.34,70.06,0,.22,0,.43,0,.65v1.29c-.36,39.16,30.91,71.28,70.06,71.99h1.29c16.68-.67,32.87-5.77,46.92-14.78v-37.28h-44.35c-3.9,0-7.07-3.17-7.07-7.07h0v-30.85h82.91c3.88.12,7.25,2.71,8.36,6.43v86.77c-.26,2.46-1.4,4.74-3.21,6.43l-.64.64Zm334.87-158.76c-1.92,3.79-6.1,5.88-10.28,5.14-16.07-4.5-22.5,5.14-22.5,15.43v16.71h32.78v30.21c.02,3.67-2.78,6.74-6.43,7.07h-26.35v112.48h-30.21c-4.51.05-8.35-3.25-9-7.71v-156.83c0-60.42,54.63-59.13,77.13-50.78l6.43,2.57-11.57,25.71Zm-152.33,187.04c-3.91-.26-7.12-3.2-7.71-7.07v-145.9h29.57c3.91.26,7.12,3.2,7.71,7.07,4.51-5.11,11.21-7.74,18-7.07,8.36-.12,16.66,1.41,24.42,4.5l4.5,1.93-12.85,28.92c-1.27,2.76-4.03,4.52-7.07,4.5h-3.21c-2.64-1.11-5.51-1.55-8.36-1.29-8.16.35-14.49,7.24-14.14,15.4,0,0,0,.02,0,.03h0v98.34h-30.85v.64Zm187.68,18c-14.14-25.71-19.28-39.85-19.28-75.84v-154.26h30.85c4.24-.36,7.97,2.8,8.33,7.04.02.22.03.45.03.67h0v152.33c-.72,21.08,6.37,41.68,19.93,57.85v1.29l-14.14,11.57h257.1v39.21H110.24v-39.21h564.97v-.64Zm266.1-42.42c2.57,0,4.5,0,4.5,2.57s-3.86,2.57-6.43,2.57h-3.21v-5.14h5.14Zm1.93,7.71c2.61.02,4.82-1.91,5.14-4.5h0c0-4.5-2.57-5.78-6.43-5.78h-8.36v19.93h2.57v-9.64h3.86l5.14,9h3.21l-5.14-9Zm-3.21-15.43c8.16,0,14.78,6.62,14.78,14.78h0c0,8.16-6.62,14.78-14.78,14.78h0c-8.16,0-14.78-6.62-14.78-14.78s6.62-14.78,14.78-14.78Zm0,32.14c9.58,0,17.35-7.77,17.35-17.35,0-9.58-7.77-17.35-17.35-17.35-9.58,0-17.35,7.77-17.35,17.35h0c0,9.58,7.77,17.35,17.35,17.35Z"/>
  <g>
    <path class="cls-2" d="m119.75,118.48l-.18-24.23h7.75l-.18,7.13h.18c2.32-4.45,7.57-8.29,14.26-8.29,5.79,0,10.51,3.12,12.47,10.16h.18c2.85-6.06,8.46-10.16,15.32-10.16,8.02,0,13.72,5.7,13.72,18.71v6.68l.18,22.63h-7.84l.18-22.63v-6.59c0-8.46-3.56-12.21-8.55-12.21-6.24,0-12.03,6.06-12.03,15.33v3.47l.18,22.63h-7.84l.18-22.63v-6.59c0-8.46-3.56-12.21-8.46-12.21-6.24,0-12.12,6.06-12.12,15.33v3.47l.18,22.63h-7.75l.18-22.63Z"/>
    <path class="cls-2" d="m192.2,129.08c0-10.42,7.31-15.06,26.64-15.06h4.1v-1.25c0-8.2-2.76-13.45-11.14-13.45-9.27,0-12.21,7.13-12.03,12.38l-6.77-1.69c0-9.53,7.31-16.93,18.8-16.93,12.47,0,18.44,6.24,18.44,18v20.76c0,3.03.8,4.46,3.92,4.46.89,0,1.87-.18,2.76-.54l1.16,5.17c-1.78.62-3.74,1.07-5.88,1.07-4.81,0-7.75-2.94-7.75-8.29,0-1.34.09-2.05.18-2.67h-.18c-3.03,6.86-8.64,11.4-17.11,11.4-9.98,0-15.15-5.61-15.15-13.36Zm16.22,6.95c7.13,0,14.52-6.06,14.52-15.5v-.89h-2.14c-14.34,0-20.85,1.96-20.85,9.36,0,4.19,3.12,7.04,8.46,7.04Z"/>
    <path class="cls-2" d="m247.36,79.01c3.21,0,4.81,1.6,4.81,4.81s-1.6,4.9-4.81,4.9-4.81-1.6-4.81-4.9,1.6-4.81,4.81-4.81Zm-3.74,38.67l-.18-23.43h7.84l-.18,23.43.18,23.43h-7.84l.18-23.43Z"/>
    <path class="cls-2" d="m263.05,118.48l-.18-24.23h7.84l-.18,7.13h.18c2.32-4.45,7.57-8.29,15.15-8.29,10.34,0,16.04,6.06,16.04,19.96v5.44l.18,22.63h-7.84l.18-22.63v-5.34c0-9.36-4.36-13.46-10.87-13.46-7.13,0-13.01,6.06-13.01,15.33v3.47l.18,22.63h-7.84l.18-22.63Z"/>
    <path class="cls-2" d="m337.54,124.44v-24.14l-7.13.18v-6.24h7.13v-15.06h7.84v15.06h14.43v6.24l-14.43-.18v25.22c0,6.95,1.07,10.51,6.86,10.51,3.3,0,5.7-.62,7.22-1.16l1.42,5.79c-2.76,1.07-5.97,1.78-9.44,1.78-13.72,0-13.9-9-13.9-18Z"/>
    <path class="cls-2" d="m363.47,117.76c0-15.06,7.84-24.68,21.2-24.68,15.41,0,19.96,13.28,19.96,26.73h-33.23c.62,10.07,5.97,16.13,13.99,16.13,6.59,0,10.96-4.28,12.21-11.58l6.77,1.78c-1.34,8.46-7.57,16.3-18.98,16.3-13.54,0-21.92-9.62-21.92-24.68Zm33.32-4.19c-.09-8.11-4.46-13.99-12.03-13.99-7.04,0-12.12,4.54-13.19,13.99h25.22Z"/>
    <path class="cls-2" d="m409.99,117.76c0-15.14,8.38-24.68,21.83-24.68,11.4,0,17.73,7.75,19.07,16.22l-6.77,1.78c-1.25-7.22-5.61-11.49-12.21-11.49-8.64,0-14.08,6.86-14.08,18.18s5.44,18.18,14.08,18.18c6.59,0,10.96-4.19,12.21-11.5l6.77,1.78c-1.34,8.46-7.57,16.22-18.98,16.22-13.45,0-21.92-9.53-21.92-24.68Z"/>
    <path class="cls-2" d="m458.2,118.48l-.18-39.2h7.84l-.18,22.1h.18c2.32-4.45,7.57-8.29,15.15-8.29,10.34,0,16.04,6.06,16.04,19.96v5.44l.18,22.63h-7.84l.18-22.63v-5.34c0-9.36-4.36-13.46-10.87-13.46-7.13,0-13.01,6.06-13.01,15.33v3.47l.18,22.63h-7.84l.18-22.63Z"/>
    <path class="cls-2" d="m508.81,118.48l-.18-24.23h7.84l-.18,7.13h.18c2.32-4.45,7.57-8.29,15.15-8.29,10.34,0,16.04,6.06,16.04,19.96v5.44l.18,22.63h-7.84l.18-22.63v-5.34c0-9.36-4.36-13.46-10.87-13.46-7.13,0-13.01,6.06-13.01,15.33v3.47l.18,22.63h-7.84l.18-22.63Z"/>
    <path class="cls-2" d="m563.17,79.01c3.21,0,4.81,1.6,4.81,4.81s-1.6,4.9-4.81,4.9-4.81-1.6-4.81-4.9,1.6-4.81,4.81-4.81Zm-3.74,38.67l-.18-23.43h7.84l-.18,23.43.18,23.43h-7.84l.18-23.43Z"/>
    <path class="cls-2" d="m575.56,117.76c0-15.14,8.38-24.68,21.83-24.68,11.4,0,17.73,7.75,19.07,16.22l-6.77,1.78c-1.25-7.22-5.61-11.49-12.21-11.49-8.64,0-14.08,6.86-14.08,18.18s5.44,18.18,14.08,18.18c6.59,0,10.96-4.19,12.21-11.5l6.77,1.78c-1.34,8.46-7.57,16.22-18.98,16.22-13.45,0-21.92-9.53-21.92-24.68Z"/>
    <path class="cls-2" d="m620.91,129.08c0-10.42,7.31-15.06,26.64-15.06h4.1v-1.25c0-8.2-2.76-13.45-11.14-13.45-9.27,0-12.21,7.13-12.03,12.38l-6.77-1.69c0-9.53,7.31-16.93,18.8-16.93,12.47,0,18.44,6.24,18.44,18v20.76c0,3.03.8,4.46,3.92,4.46.89,0,1.87-.18,2.76-.54l1.16,5.17c-1.78.62-3.74,1.07-5.88,1.07-4.81,0-7.75-2.94-7.75-8.29,0-1.34.09-2.05.18-2.67h-.18c-3.03,6.86-8.64,11.4-17.11,11.4-9.98,0-15.15-5.61-15.15-13.36Zm16.22,6.95c7.13,0,14.52-6.06,14.52-15.5v-.89h-2.14c-14.34,0-20.85,1.96-20.85,9.36,0,4.19,3.12,7.04,8.46,7.04Z"/>
    <path class="cls-2" d="m672.33,109.74l-.18-30.47h7.84l-.18,30.47.18,31.36h-7.84l.18-31.36Z"/>
    <path class="cls-2" d="m714.48,121.15l-.18-26.91h8.11l-.18,6.95h.18c1.78-3.48,6.59-8.11,14.79-8.11,12.21,0,19.07,8.64,19.07,24.5s-6.86,24.86-19.07,24.86c-8.2,0-12.92-4.9-14.88-8.46h-.18l.27,21.38h-8.11l.18-34.21Zm20.85,14.88c8.38,0,13.1-6.59,13.1-18.44s-4.72-18.09-13.1-18.09c-6.95,0-13.19,5.52-13.19,18.26,0,14.7,7.57,18.27,13.19,18.27Z"/>
    <path class="cls-2" d="m762.06,129.08c0-10.42,7.31-15.06,26.64-15.06h4.1v-1.25c0-8.2-2.76-13.45-11.14-13.45-9.27,0-12.21,7.13-12.03,12.38l-6.77-1.69c0-9.53,7.31-16.93,18.8-16.93,12.47,0,18.44,6.24,18.44,18v20.76c0,3.03.8,4.46,3.92,4.46.89,0,1.87-.18,2.76-.54l1.16,5.17c-1.78.62-3.74,1.07-5.88,1.07-4.81,0-7.75-2.94-7.75-8.29,0-1.34.09-2.05.18-2.67h-.18c-3.03,6.86-8.64,11.4-17.11,11.4-9.98,0-15.15-5.61-15.15-13.36Zm16.22,6.95c7.13,0,14.52-6.06,14.52-15.5v-.89h-2.14c-14.34,0-20.85,1.96-20.85,9.36,0,4.19,3.12,7.04,8.46,7.04Z"/>
    <path class="cls-2" d="m813.48,118.56l-.18-24.32h7.84l-.27,7.39h.18c1.6-4.36,6.42-8.55,13.72-8.55.98,0,2.32.09,3.47.36l-.09,7.4c-1.51-.45-2.76-.62-3.83-.62-8.38,0-13.36,5.61-13.36,16.93v1.34l.18,22.63h-7.84l.18-22.54Z"/>
    <path class="cls-2" d="m847.61,124.44v-24.14l-7.13.18v-6.24h7.13v-15.06h7.84v15.06h14.43v6.24l-14.43-.18v25.22c0,6.95,1.07,10.51,6.86,10.51,3.3,0,5.7-.62,7.22-1.16l1.42,5.79c-2.76,1.07-5.97,1.78-9.44,1.78-13.72,0-13.9-9-13.9-18Z"/>
    <path class="cls-2" d="m877.37,118.48l-.18-24.23h7.84l-.18,7.13h.18c2.32-4.45,7.57-8.29,15.15-8.29,10.34,0,16.04,6.06,16.04,19.96v5.44l.18,22.63h-7.84l.18-22.63v-5.34c0-9.36-4.36-13.46-10.87-13.46-7.13,0-13.01,6.06-13.01,15.33v3.47l.18,22.63h-7.84l.18-22.63Z"/>
    <path class="cls-2" d="m924.69,117.76c0-15.06,7.84-24.68,21.2-24.68,15.41,0,19.96,13.28,19.96,26.73h-33.23c.62,10.07,5.97,16.13,13.99,16.13,6.59,0,10.96-4.28,12.21-11.58l6.77,1.78c-1.34,8.46-7.57,16.3-18.98,16.3-13.54,0-21.92-9.62-21.92-24.68Zm33.32-4.19c-.09-8.11-4.46-13.99-12.03-13.99-7.04,0-12.12,4.54-13.19,13.99h25.22Z"/>
    <path class="cls-2" d="m974.51,118.56l-.18-24.32h7.84l-.27,7.39h.18c1.6-4.36,6.42-8.55,13.72-8.55.98,0,2.32.09,3.47.36l-.09,7.4c-1.51-.45-2.76-.62-3.83-.62-8.38,0-13.36,5.61-13.36,16.93v1.34l.18,22.63h-7.84l.18-22.54Z"/>
  </g>
</svg>